Coordinates
version=1
nRows=34
nColumns=38
inDegrees=no

Units are S.I. units (second, meters, Newtons, ...)
If the header above contains a line with 'inDegrees', this indicates whether rotational values are in degrees (yes) or radians (no).

endheader
time	pelvis_tilt	pelvis_list	pelvis_rotation	pelvis_tx	pelvis_ty	pelvis_tz	hip_flexion_r	hip_adduction_r	hip_rotation_r	knee_angle_r	ankle_angle_r	subtalar_angle_r	mtp_angle_r	hip_flexion_l	hip_adduction_l	hip_rotation_l	knee_angle_l	ankle_angle_l	subtalar_angle_l	mtp_angle_l	lumbar_extension	lumbar_bending	lumbar_rotation	arm_flex_r	arm_add_r	arm_rot_r	elbow_flex_r	pro_sup_r	wrist_flex_r	wrist_dev_r	arm_flex_l	arm_add_l	arm_rot_l	elbow_flex_l	pro_sup_l	wrist_flex_l	wrist_dev_l
0	-0.0317898	1.10959	1.52777	0.975603	-0.618862	0.988291	0.200994	0.0183933	-0.188831	0.252414	0.00206624	0	0	0.824532	-0.0524698	-0.329884	0.0108738	-0.217164	0	0	0.415564	0.0299061	0.0705937	-0.147041	-0.38218	0.195258	0.828916	1.43271	0	0	-0.257269	-0.131456	-0.489824	0.460684	1.04649	0	0
0.01	-0.0321341	1.1206	1.5301	0.974718	-0.606222	0.98755	0.183043	0.014882	-0.187607	0.265774	0.00195657	0	0	0.811905	-0.0465781	-0.310222	0.0209346	-0.217855	0	0	0.400113	0.0272266	0.0752216	-0.150225	-0.378911	0.182547	0.830326	1.43018	0	0	-0.249327	-0.13139	-0.490544	0.460644	1.06244	0	0
0.02	-0.0334486	1.10474	1.52538	0.974185	-0.594989	0.985018	0.199832	0.0132786	-0.157926	0.29049	0.00289698	0	0	0.833536	-0.047911	-0.291384	0.0506208	-0.212235	0	0	0.406347	0.0284482	0.10957	-0.182573	-0.371302	0.128073	0.849828	1.43671	0	0	-0.231054	-0.133187	-0.481251	0.458987	1.0903	0	0
0.03	-0.0387507	1.13714	1.53025	0.973809	-0.578376	0.986312	0.152802	0.00610393	-0.170165	0.293847	-0.00656003	0	0	0.795096	-0.0437905	-0.299665	0.0753983	-0.199386	0	0	0.386121	0.0218398	0.0907879	-0.161155	-0.363463	0.154031	0.817551	1.44168	0	0	-0.245806	-0.131636	-0.494154	0.459614	1.09193	0	0
0.04	-0.0425017	1.13767	1.53205	0.973086	-0.564219	0.985281	0.148792	0.000282672	-0.161742	0.314553	-0.0115648	0	0	0.794377	-0.039732	-0.285787	0.104957	-0.195067	0	0	0.389173	0.0173749	0.0926895	-0.162534	-0.358044	0.156873	0.804328	1.4384	0	0	-0.251401	-0.131323	-0.49673	0.463405	1.094	0	0
0.05	-0.0466817	1.13587	1.53349	0.972247	-0.549583	0.984194	0.149291	-0.00649729	-0.153541	0.340246	-0.0196218	0	0	0.793888	-0.0338094	-0.269251	0.126728	-0.192394	0	0	0.396772	0.0127686	0.0963351	-0.165752	-0.351774	0.160455	0.787654	1.433	0	0	-0.259718	-0.131065	-0.499492	0.468854	1.09691	0	0
0.06	-0.0528091	1.13164	1.53576	0.97137	-0.534758	0.983148	0.155371	-0.0146038	-0.143542	0.372475	-0.0312253	0	0	0.794609	-0.0261092	-0.251444	0.13811	-0.201285	0	0	0.40815	0.00802428	0.100786	-0.168318	-0.345001	0.167668	0.76675	1.42639	0	0	-0.269612	-0.131331	-0.501515	0.473239	1.10139	0	0
0.07	-0.060475	1.1235	1.53915	0.970519	-0.519981	0.982126	0.168836	-0.023405	-0.129576	0.409989	-0.0476567	0	0	0.799486	-0.018504	-0.234627	0.144411	-0.225982	0	0	0.425494	0.00239361	0.104941	-0.168813	-0.338094	0.183709	0.739629	1.41758	0	0	-0.280932	-0.132118	-0.505624	0.476335	1.10725	0	0
0.08	-0.0682716	1.11413	1.54344	0.969702	-0.505331	0.98139	0.186554	-0.0322899	-0.112776	0.451311	-0.0669834	0	0	0.806086	-0.0129803	-0.220276	0.153603	-0.246793	0	0	0.444493	-0.00385763	0.108298	-0.166678	-0.330643	0.207208	0.707226	1.41028	0	0	-0.290816	-0.133468	-0.511729	0.476096	1.11377	0	0
0.09	-0.0763871	1.10688	1.54981	0.96883	-0.490719	0.981139	0.204439	-0.0420072	-0.0974809	0.494966	-0.0908195	0	0	0.811194	-0.00921543	-0.210453	0.170803	-0.252177	0	0	0.459804	-0.010665	0.109213	-0.162209	-0.322687	0.234968	0.672703	1.40937	0	0	-0.298955	-0.134758	-0.519394	0.473312	1.1191	0	0
0.1	-0.086241	1.10244	1.56004	0.967807	-0.47624	0.981329	0.221981	-0.0534195	-0.0845912	0.540729	-0.123572	0	0	0.814597	-0.00542523	-0.203117	0.197448	-0.246967	0	0	0.470049	-0.018968	0.107073	-0.155526	-0.314426	0.266557	0.637561	1.4162	0	0	-0.306011	-0.135186	-0.530862	0.470186	1.12109	0	0
0.11	-0.0980269	1.10046	1.57439	0.966644	-0.462048	0.98191	0.23943	-0.0663231	-0.0738823	0.587804	-0.161247	0	0	0.8164	-0.000468178	-0.194496	0.230908	-0.23709	0	0	0.475678	-0.0294125	0.102422	-0.147034	-0.305147	0.299991	0.601885	1.42851	0	0	-0.311928	-0.13545	-0.543986	0.467536	1.12117	0	0
0.12	-0.102067	1.06112	1.58869	0.964832	-0.452199	0.979958	0.307794	-0.0755749	-0.0504505	0.652734	-0.195142	0	0	0.865771	0.00912378	-0.15422	0.272586	-0.232625	0	0	0.513304	-0.0393715	0.101237	-0.153175	-0.297525	0.314095	0.583839	1.44445	0	0	-0.311631	-0.138916	-0.547063	0.465175	1.12381	0	0
0.13	-0.11486	1.05416	1.6057	0.963751	-0.439347	0.980428	0.336868	-0.0886537	-0.037488	0.705904	-0.236468	0	0	0.872711	0.0158049	-0.150427	0.303349	-0.221975	0	0	0.522046	-0.0528792	0.0985049	-0.147549	-0.285218	0.340445	0.550853	1.46826	0	0	-0.317124	-0.142401	-0.55096	0.466752	1.123	0	0
0.14	-0.128348	1.05372	1.62368	0.962646	-0.426398	0.98137	0.360105	-0.101642	-0.0270895	0.758081	-0.280515	0	0	0.870688	0.0232256	-0.153859	0.328968	-0.210192	0	0	0.522197	-0.067548	0.0946152	-0.138221	-0.272301	0.372549	0.515233	1.49422	0	0	-0.321959	-0.145601	-0.554988	0.470546	1.12023	0	0
0.15	-0.14071	1.05455	1.63955	0.961503	-0.413784	0.982395	0.38388	-0.113159	-0.0169418	0.809634	-0.324593	0	0	0.865323	0.030447	-0.161868	0.349343	-0.199972	0	0	0.519909	-0.0805125	0.0927558	-0.130567	-0.261074	0.405915	0.483909	1.51887	0	0	-0.324283	-0.148136	-0.55943	0.47368	1.11815	0	0
0.16	-0.149829	1.05515	1.65099	0.960446	-0.40159	0.983374	0.409491	-0.122065	-0.00748177	0.859426	-0.376233	0	0	0.857949	0.0367656	-0.168466	0.362756	-0.191208	0	0	0.517207	-0.0904555	0.0917514	-0.123614	-0.250999	0.43889	0.455673	1.53975	0	0	-0.324899	-0.150001	-0.563483	0.475613	1.1178	0	0
0.17	-0.155053	1.05657	1.65651	0.959602	-0.389633	0.984451	0.4352	-0.127338	0.00210116	0.90553	-0.433722	0	0	0.84762	0.0413122	-0.173133	0.370366	-0.181987	0	0	0.5138	-0.0964424	0.0924314	-0.117451	-0.241845	0.47136	0.429841	1.55526	0	0	-0.323791	-0.151561	-0.565818	0.475659	1.12005	0	0
0.18	-0.155951	1.05938	1.65597	0.958904	-0.377646	0.985737	0.459496	-0.128921	0.011766	0.947809	-0.486218	0	0	0.834368	0.0438555	-0.177237	0.375052	-0.171416	0	0	0.509849	-0.0982903	0.0942185	-0.112887	-0.234306	0.504396	0.407271	1.56679	0	0	-0.321785	-0.152437	-0.567202	0.473973	1.12447	0	0
0.19	-0.15276	1.06245	1.6502	0.958232	-0.365632	0.987198	0.483149	-0.127752	0.0204619	0.986591	-0.519517	0	0	0.820201	0.0444735	-0.180035	0.379388	-0.159624	0	0	0.50681	-0.0965492	0.0962333	-0.109967	-0.2293	0.541383	0.38876	1.57027	0	0	-0.319924	-0.152209	-0.568585	0.471206	1.12976	0	0
0.2	-0.147391	1.0645	1.64289	0.957412	-0.353628	0.988824	0.506772	-0.126059	0.0272295	1.0223	-0.52455	0	0	0.806393	0.0448069	-0.1805	0.382907	-0.148459	0	0	0.506183	-0.093304	0.0969968	-0.108397	-0.225662	0.581007	0.372549	1.57066	0	0	-0.317311	-0.150934	-0.573751	0.464797	1.134	0	0
0.21	-0.140907	1.06454	1.63587	0.956395	-0.341756	0.990572	0.531335	-0.124733	0.0323314	1.05536	-0.508785	0	0	0.794015	0.0454254	-0.178253	0.384706	-0.139658	0	0	0.509213	-0.0896733	0.0969354	-0.108586	-0.221842	0.615541	0.357496	1.57028	0	0	-0.314885	-0.149681	-0.578616	0.456601	1.13857	0	0
0.22	-0.135137	1.0643	1.63099	0.95524	-0.330016	0.992549	0.555326	-0.124341	0.0366528	1.086	-0.48413	0	0	0.781056	0.0465071	-0.175884	0.383672	-0.134377	0	0	0.512873	-0.0866666	0.0969311	-0.111116	-0.218127	0.640314	0.345649	1.56998	0	0	-0.311796	-0.148708	-0.582616	0.447392	1.1421	0	0
0.23	-0.128942	1.06464	1.62857	0.953875	-0.318259	0.994707	0.577456	-0.125334	0.0376521	1.11355	-0.453983	0	0	0.766634	0.0485874	-0.171556	0.379619	-0.131221	0	0	0.516227	-0.0845999	0.0943174	-0.115035	-0.214836	0.657286	0.336881	1.56741	0	0	-0.309188	-0.147438	-0.587807	0.438198	1.14488	0	0
0.24	-0.120741	1.06679	1.62658	0.952432	-0.306461	0.997112	0.597103	-0.126454	0.0307082	1.13851	-0.454577	0	0	0.749694	0.0504612	-0.164864	0.373332	-0.130049	0	0	0.517517	-0.0827274	0.0905472	-0.120265	-0.211623	0.66743	0.330452	1.56521	0	0	-0.306245	-0.146599	-0.591592	0.42928	1.14625	0	0
0.25	-0.113007	1.06913	1.62599	0.950879	-0.294866	0.999524	0.615218	-0.129342	0.0297009	1.15677	-0.393569	0	0	0.732161	0.0529253	-0.157114	0.365306	-0.130055	0	0	0.517936	-0.081833	0.0845835	-0.124714	-0.209676	0.678433	0.326793	1.55569	0	0	-0.304061	-0.144832	-0.599781	0.421522	1.15008	0	0
0.26	-0.104653	1.0725	1.62433	0.94955	-0.28324	1.00199	0.63219	-0.130532	0.0260207	1.17193	-0.369284	0	0	0.712926	0.0541697	-0.151091	0.356431	-0.13048	0	0	0.516826	-0.0810107	0.0790701	-0.130725	-0.207978	0.678792	0.326777	1.54649	0	0	-0.303579	-0.143646	-0.60512	0.416988	1.15183	0	0
0.27	-0.0956193	1.07586	1.62196	0.948273	-0.271692	1.00442	0.648582	-0.131014	0.0222274	1.18135	-0.345598	0	0	0.693666	0.0551673	-0.14613	0.348197	-0.130718	0	0	0.515635	-0.0798833	0.07327	-0.137253	-0.20691	0.674837	0.32892	1.53412	0	0	-0.30376	-0.14228	-0.611066	0.413551	1.15357	0	0
0.28	-0.0847177	1.07916	1.61866	0.946931	-0.26033	1.00684	0.664349	-0.130949	0.0171241	1.18543	-0.323909	0	0	0.674679	0.0560372	-0.140619	0.340657	-0.130678	0	0	0.514021	-0.0782618	0.066602	-0.143788	-0.206122	0.666428	0.332295	1.51817	0	0	-0.303722	-0.140904	-0.616805	0.410283	1.15562	0	0
0.29	-0.0725669	1.08195	1.61383	0.945647	-0.249166	1.00919	0.680117	-0.129822	0.0121028	1.18475	-0.303779	0	0	0.656058	0.0559957	-0.136415	0.332616	-0.130715	0	0	0.512405	-0.0762387	0.0600529	-0.150898	-0.206066	0.653932	0.338177	1.49876	0	0	-0.303904	-0.139622	-0.621818	0.407854	1.1584	0	0
0.3	-0.059286	1.08378	1.60708	0.944452	-0.238186	1.01135	0.696402	-0.127184	0.00813133	1.17998	-0.284141	0	0	0.638291	0.0544168	-0.135254	0.323825	-0.131063	0	0	0.511536	-0.0733297	0.054575	-0.158791	-0.206826	0.638961	0.345997	1.47743	0	0	-0.304075	-0.138411	-0.625958	0.405942	1.1619	0	0
0.31	-0.044954	1.08532	1.59954	0.943292	-0.227322	1.01336	0.712007	-0.123826	0.00389274	1.17169	-0.263332	0	0	0.620896	0.0520265	-0.134541	0.314806	-0.132373	0	0	0.510806	-0.0698371	0.0493222	-0.166676	-0.207872	0.623339	0.354106	1.45606	0	0	-0.304009	-0.137572	-0.628617	0.404158	1.16611	0	0
0.32	-0.0298428	1.08594	1.59197	0.942116	-0.216646	1.0152	0.727882	-0.120292	-0.000588422	1.16031	-0.241649	0	0	0.604734	0.0493585	-0.132793	0.305346	-0.134532	0	0	0.510594	-0.0662609	0.0436338	-0.174481	-0.209254	0.60672	0.363028	1.43437	0	0	-0.303851	-0.136774	-0.631007	0.403051	1.17013	0	0
0.33	-0.0132709	1.08502	1.58355	0.940901	-0.206247	1.0168	0.744636	-0.11622	-0.00539374	1.14547	-0.219291	0	0	0.590692	0.0461045	-0.129751	0.295797	-0.137045	0	0	0.511668	-0.0624419	0.0379093	-0.182589	-0.210638	0.588252	0.372588	1.4108	0	0	-0.303438	-0.136013	-0.632833	0.4027	1.174	0	0
